<?xml version="1.0"?>
<svg xmlns="http://www.w3.org/2000/svg" id="Capa_1" enable-background="new 0 0 512 512" height="512px" viewBox="0 0 512 512" width="512px"><g><g><path d="m388.534 33.134h-91.9v-17.634c0-8.547-6.953-15.5-15.5-15.5h-50.268c-8.547 0-15.5 6.953-15.5 15.5v17.634h-91.9c-22.405 0-40.633 18.228-40.633 40.632v125.817c0 4.142 3.357 7.5 7.5 7.5s7.5-3.358 7.5-7.5v-125.817c0-14.134 11.499-25.632 25.633-25.632h91.9v18.133h-25.633c-13.27 0-24.067 10.796-24.067 24.067s10.797 24.066 24.067 24.066h132.533c13.271 0 24.067-10.796 24.067-24.066s-10.797-24.067-24.067-24.067h-25.633v-18.133h91.9c14.134 0 25.633 11.499 25.633 25.632v397.601c0 14.134-11.499 25.633-25.633 25.633h-50.749c-4.143 0-7.5 3.358-7.5 7.5s3.357 7.5 7.5 7.5h50.749c22.405 0 40.633-18.228 40.633-40.633v-397.601c.001-22.405-18.226-40.632-40.632-40.632zm-57.2 57.2c0 4.999-4.067 9.066-9.067 9.066h-132.534c-5 0-9.067-4.067-9.067-9.066 0-5 4.067-9.067 9.067-9.067h33.133 66.268 33.133c5 0 9.067 4.067 9.067 9.067zm-67.834-24.067v-9.067c0-4.142-3.357-7.5-7.5-7.5s-7.5 3.358-7.5 7.5v9.066h-18.134v-50.766c0-.276.225-.5.5-.5h50.268c.275 0 .5.224.5.5v50.767z" data-original="#000000" class="active-path" data-old_color="#000000" fill="#FFFFFF"/><path d="m307.785 497h-184.319c-14.134 0-25.633-11.499-25.633-25.633v-241.784c0-4.142-3.357-7.5-7.5-7.5s-7.5 3.358-7.5 7.5v241.784c0 22.405 18.228 40.633 40.633 40.633h184.319c4.143 0 7.5-3.358 7.5-7.5s-3.357-7.5-7.5-7.5z" data-original="#000000" class="active-path" data-old_color="#000000" fill="#FFFFFF"/><path d="m181.166 329.768h25.134 99.4 25.134c8.547 0 15.5-6.953 15.5-15.5v-166.234c0-8.547-6.953-15.5-15.5-15.5h-149.668c-8.547 0-15.5 6.953-15.5 15.5v166.234c0 8.547 6.953 15.5 15.5 15.5zm32.634-15v-33.917c0-9.567 7.783-17.35 17.351-17.35h49.699c9.567 0 17.351 7.783 17.351 17.35v33.917zm42.2-66.267c-18.702 0-33.917-15.215-33.917-33.917s15.215-33.916 33.917-33.916 33.917 15.215 33.917 33.916-15.215 33.917-33.917 33.917zm-75.334-100.467c0-.276.225-.5.5-.5h149.668c.275 0 .5.224.5.5v166.234c0 .276-.225.5-.5.5h-17.634v-33.917c0-14.696-9.854-27.126-23.3-31.052 9.247-8.904 15.017-21.395 15.017-35.215 0-26.973-21.944-48.916-48.917-48.916s-48.917 21.944-48.917 48.916c0 13.82 5.77 26.31 15.017 35.215-13.445 3.926-23.3 16.356-23.3 31.052v33.917h-17.634c-.275 0-.5-.224-.5-.5z" data-original="#000000" class="active-path" data-old_color="#000000" fill="#FFFFFF"/><path d="m165.666 388.534c0 4.142 3.357 7.5 7.5 7.5h165.668c4.143 0 7.5-3.358 7.5-7.5v-33.133c0-4.142-3.357-7.5-7.5-7.5h-165.668c-4.143 0-7.5 3.358-7.5 7.5zm15-25.633h150.668v18.133h-150.668z" data-original="#000000" class="active-path" data-old_color="#000000" fill="#FFFFFF"/><path d="m198.017 414.168c-4.143 0-7.5 3.358-7.5 7.5s3.357 7.5 7.5 7.5h49.7c4.143 0 7.5-3.358 7.5-7.5s-3.357-7.5-7.5-7.5z" data-original="#000000" class="active-path" data-old_color="#000000" fill="#FFFFFF"/><path d="m313.983 414.168h-33.133c-4.143 0-7.5 3.358-7.5 7.5s3.357 7.5 7.5 7.5h33.134c4.143 0 7.5-3.358 7.5-7.5-.001-4.143-3.358-7.5-7.501-7.5z" data-original="#000000" class="active-path" data-old_color="#000000" fill="#FFFFFF"/><path d="m130.967 454.801v-347.901c0-4.142-3.357-7.5-7.5-7.5s-7.5 3.358-7.5 7.5v347.901c0 4.142 3.357 7.5 7.5 7.5 4.142 0 7.5-3.358 7.5-7.5z" data-original="#000000" class="active-path" data-old_color="#000000" fill="#FFFFFF"/><path d="m396.033 454.801v-347.901c0-4.142-3.357-7.5-7.5-7.5s-7.5 3.358-7.5 7.5v347.901c0 4.142 3.357 7.5 7.5 7.5s7.5-3.358 7.5-7.5z" data-original="#000000" class="active-path" data-old_color="#000000" fill="#FFFFFF"/></g></g> </svg>
