<?xml version="1.0" standalone="no"?>
<!DOCTYPE svg PUBLIC "-//W3C//DTD SVG 20010904//EN"
 "http://www.w3.org/TR/2001/REC-SVG-20010904/DTD/svg10.dtd">
<svg version="1.0" xmlns="http://www.w3.org/2000/svg"
 width="1484.000000pt" height="1099.000000pt" viewBox="0 0 1484.000000 1099.000000"
 preserveAspectRatio="xMidYMid meet">

<g transform="translate(0.000000,1099.000000) scale(0.100000,-0.100000)"
fill="#000000" stroke="none">
<path d="M3520 10890 c-47 -5 -175 -14 -284 -20 -109 -6 -233 -15 -275 -20
-42 -5 -107 -12 -146 -15 -94 -8 -343 -43 -430 -60 -38 -7 -108 -21 -155 -29
-254 -48 -484 -124 -725 -241 -220 -106 -284 -128 -420 -140 -245 -22 -503
-104 -667 -212 -103 -68 -209 -172 -246 -240 -66 -127 -102 -312 -103 -548 -2
-157 15 -247 78 -429 73 -211 159 -332 324 -455 121 -91 282 -161 533 -231 76
-21 196 -65 261 -94 17 -8 82 -39 145 -69 151 -72 296 -136 343 -153 20 -7 52
-20 70 -28 119 -53 474 -143 672 -171 28 -3 104 -17 170 -30 103 -20 185 -29
510 -60 28 -2 228 -7 445 -11 323 -5 436 -3 622 10 125 10 242 19 260 21 18 3
92 12 163 20 255 32 537 84 650 120 22 7 101 32 175 55 314 97 387 122 487
166 29 13 82 33 118 45 64 20 144 69 255 155 30 23 116 72 190 108 195 94 356
205 446 307 21 24 42 46 45 49 26 22 103 161 128 230 76 215 118 492 92 613
-5 23 -17 85 -27 137 -26 143 -101 290 -193 380 -72 70 -205 160 -324 220
-131 65 -237 96 -427 125 -98 14 -272 69 -353 110 -100 52 -457 175 -507 175
-9 0 -59 11 -111 26 -51 14 -119 29 -149 33 -30 5 -120 20 -200 34 -228 42
-253 45 -475 67 -532 51 -801 65 -965 50z m2905 -812 c11 -2 27 -7 35 -10 8
-4 39 -12 68 -18 28 -7 55 -16 58 -21 3 -5 12 -9 20 -9 20 0 140 -57 199 -95
48 -31 155 -130 155 -144 0 -3 8 -11 18 -17 22 -14 105 -181 97 -195 -4 -5 -1
-17 7 -26 18 -22 19 -336 1 -354 -7 -7 -13 -26 -13 -43 0 -40 -29 -95 -95
-186 -77 -104 -156 -174 -298 -262 -19 -12 -100 -46 -127 -53 -14 -4 -44 -16
-68 -27 -27 -12 -59 -18 -85 -16 l-42 3 -8 85 c-4 47 -7 110 -8 140 0 30 -4
59 -8 65 -5 5 -14 89 -21 185 -7 96 -16 180 -20 185 -4 6 -13 105 -19 220 -7
116 -16 220 -21 231 -5 12 -12 101 -16 199 l-7 176 89 -4 c49 -3 98 -7 109 -9z
m-5330 -155 c-4 -76 -10 -151 -15 -168 -30 -105 -42 -295 -46 -738 -2 -225 -6
-413 -10 -418 -7 -13 -111 -11 -159 2 -70 20 -366 172 -385 198 -3 4 -26 22
-52 40 -50 33 -142 142 -171 200 -30 60 -40 165 -35 376 5 186 7 204 30 255
31 68 111 154 163 176 22 8 76 34 120 57 151 78 210 104 245 111 19 4 46 12
61 17 31 12 136 26 207 28 l54 1 -7 -137z m3003 34 c13 -15 20 -50 29 -133 14
-147 -64 -234 -226 -250 -50 -6 -65 -3 -95 15 -59 37 -92 133 -95 276 -2 69 1
85 15 93 27 15 359 14 372 -1z m303 -6 c59 -10 112 -21 118 -25 13 -9 14 -144
2 -199 -11 -45 -43 -84 -86 -101 -72 -30 -196 26 -234 106 -19 42 -46 212 -35
229 9 15 123 10 235 -10z m-1166 -109 c-10 -140 -20 -170 -72 -219 -42 -39
-103 -63 -162 -63 -52 0 -111 89 -111 169 0 27 -4 61 -10 75 -15 39 -3 54 66
86 61 28 208 65 223 56 4 -3 13 -1 21 4 8 5 22 4 33 -2 17 -9 18 -18 12 -106z
m426 111 c3 -16 12 -209 12 -253 0 -94 -54 -150 -146 -150 -58 0 -104 15 -160
50 -76 48 -87 75 -87 210 0 63 4 120 8 127 8 13 50 16 245 21 70 1 128 -1 128
-5z m1028 -75 c48 -17 93 -37 102 -45 8 -7 20 -13 26 -13 5 0 18 -8 27 -19 16
-17 16 -26 2 -117 -8 -55 -17 -135 -20 -179 -7 -93 -21 -215 -42 -370 -8 -60
-18 -129 -21 -152 -4 -32 -10 -43 -23 -43 -14 0 -22 19 -39 93 -12 50 -26 110
-32 132 -10 42 -34 182 -69 403 -29 182 -30 342 -2 342 3 0 44 -14 91 -32z
m-1856 -82 c3 -7 8 -75 12 -150 8 -139 -5 -389 -27 -516 -6 -36 -16 -114 -22
-175 -9 -86 -14 -110 -26 -110 -10 0 -19 18 -27 50 -28 111 -63 274 -72 335
-29 191 -44 274 -62 360 l-20 95 27 21 c14 12 53 36 87 54 34 18 66 36 72 41
14 14 52 11 58 -5z m1577 -331 c45 -23 40 -52 -12 -65 -24 -6 -54 -15 -68 -20
-52 -19 -151 -41 -160 -35 -17 11 -11 34 18 66 54 62 158 87 222 54z m-1220
-16 c24 -11 53 -27 62 -36 18 -16 25 -77 10 -87 -11 -7 -240 50 -257 64 -34
28 34 79 105 79 19 0 55 -9 80 -20z m420 8 c55 -28 96 -168 54 -184 -17 -6
-195 11 -281 28 -70 14 -81 28 -58 79 21 48 33 58 82 76 48 17 170 18 203 1z
m369 7 c41 -9 120 -81 124 -114 2 -23 -3 -26 -58 -37 -143 -29 -265 -42 -292
-32 -24 9 -25 12 -20 61 13 104 106 150 246 122z m-1619 -929 c0 -8 -2 -15 -4
-15 -2 0 -6 7 -10 15 -3 8 -1 15 4 15 6 0 10 -7 10 -15z"/>
<path d="M10850 10813 c-422 -20 -864 -77 -1250 -161 -188 -42 -385 -114 -615
-227 -183 -89 -215 -100 -352 -120 -59 -9 -139 -21 -178 -27 -83 -12 -240 -53
-310 -80 -232 -92 -413 -234 -479 -379 -96 -210 -123 -569 -61 -799 74 -278
138 -404 270 -535 142 -142 317 -228 650 -321 50 -14 104 -32 120 -39 17 -7
53 -21 80 -31 28 -10 111 -48 185 -85 347 -171 589 -259 865 -316 66 -13 129
-26 140 -29 11 -2 63 -11 115 -19 52 -8 127 -22 165 -30 128 -27 466 -55 793
-66 346 -11 744 -1 982 26 69 7 190 21 269 29 79 9 160 20 180 25 20 5 61 12
91 16 50 6 252 52 325 74 317 96 510 159 641 212 67 27 142 55 166 63 44 13
59 22 208 133 41 30 131 82 200 116 193 93 368 212 466 317 141 151 216 342
260 664 18 133 11 232 -28 401 -61 260 -208 427 -511 577 -130 64 -218 92
-354 113 -181 26 -267 50 -398 110 -153 70 -242 106 -332 134 -113 35 -412
108 -493 121 -30 5 -134 23 -230 40 -354 63 -837 101 -1255 98 -143 -1 -289
-3 -325 -5z m631 -583 c30 -12 64 -26 77 -31 13 -5 21 -13 18 -18 -6 -8 -27
-5 -116 20 -33 9 -343 13 -401 5 -58 -8 -48 12 13 28 91 23 110 25 239 21 88
-3 128 -9 170 -25z m-96 -71 c75 -10 180 -46 250 -84 l30 -17 -40 7 c-22 4
-62 11 -90 15 -27 5 -68 13 -90 19 -47 12 -348 13 -420 1 -131 -22 -135 -23
-135 -11 0 6 11 11 25 11 13 0 58 11 99 25 41 14 92 25 113 26 21 0 46 3 56 7
31 12 120 13 202 1z m-55 -109 c85 -9 224 -48 287 -79 23 -12 47 -21 53 -21 5
0 10 -4 10 -9 0 -5 9 -13 21 -16 11 -4 18 -9 16 -12 -3 -2 -43 6 -89 20 -158
47 -201 52 -448 51 -159 0 -249 -4 -279 -13 -23 -7 -46 -10 -49 -7 -10 10 31
34 78 46 25 6 56 16 70 22 53 22 217 31 330 18z m2610 -41 c25 -6 52 -12 60
-14 55 -13 160 -54 249 -97 80 -39 119 -65 167 -113 136 -136 174 -205 199
-363 26 -167 4 -361 -50 -444 -135 -207 -277 -328 -477 -406 -118 -46 -191
-62 -203 -43 -4 7 -13 92 -21 189 -8 97 -21 233 -29 302 -27 225 -75 816 -75
933 l0 67 68 0 c37 0 87 -5 112 -11z m-5342 -18 c11 -7 12 -35 3 -158 -7 -82
-16 -165 -21 -184 -21 -72 -44 -461 -46 -784 -1 -181 -2 -336 -3 -342 -1 -18
-103 -17 -161 1 -174 53 -450 227 -539 341 -81 102 -92 137 -104 320 -12 187
0 344 34 421 30 67 122 157 184 180 28 10 81 36 119 57 144 82 256 120 411
141 55 7 102 14 105 14 3 1 11 -2 18 -7z m2742 -66 c142 -16 240 -43 369 -101
173 -79 340 -238 395 -374 10 -25 23 -51 29 -59 7 -8 11 -63 11 -150 0 -126
-2 -140 -26 -193 -56 -120 -137 -213 -256 -291 -39 -26 -75 -47 -80 -47 -4 0
-30 -10 -58 -23 -51 -24 -84 -35 -199 -62 -56 -13 -107 -15 -255 -12 -105 2
-205 9 -230 16 -195 55 -338 118 -416 183 -129 107 -207 207 -248 315 -24 63
-27 86 -27 181 0 73 5 121 15 143 8 19 21 50 30 71 26 59 101 152 168 207 144
117 324 183 548 200 103 8 119 8 230 -4z m-502 -1324 c59 -29 191 -69 272 -81
97 -15 324 -5 380 17 73 29 110 39 107 29 -6 -17 -115 -92 -187 -128 -63 -31
-70 -32 -190 -33 -95 0 -134 4 -160 16 -19 9 -48 21 -63 28 -53 21 -207 143
-207 163 0 12 6 10 48 -11z"/>
<path d="M10922 9493 c-26 -10 -39 -27 -63 -79 -56 -121 -49 -280 15 -349 44
-47 70 -45 120 8 35 36 44 54 60 127 16 70 17 96 9 145 -22 126 -71 178 -141
148z"/>
<path d="M11491 9442 c-44 -50 -73 -131 -74 -207 -2 -109 9 -158 46 -198 49
-54 70 -56 116 -10 46 46 81 145 81 232 0 65 -27 150 -58 186 -30 34 -79 33
-111 -3z"/>
<path d="M3415 7145 c-499 -32 -784 -63 -1100 -121 -377 -69 -487 -104 -822
-261 -215 -100 -255 -113 -398 -132 -274 -37 -395 -69 -555 -144 -171 -81
-319 -204 -378 -315 -68 -130 -102 -311 -102 -551 0 -169 16 -257 80 -437 113
-320 327 -511 705 -628 66 -20 152 -47 190 -58 100 -31 263 -98 380 -156 55
-27 134 -64 175 -82 41 -18 89 -38 105 -46 17 -7 48 -20 70 -28 22 -7 65 -24
95 -36 76 -31 236 -78 328 -96 42 -9 95 -20 117 -24 22 -5 105 -20 185 -34 80
-14 174 -33 210 -41 36 -8 101 -17 145 -20 44 -3 125 -10 180 -15 265 -26 354
-30 675 -30 318 -1 398 3 773 35 320 27 697 97 934 174 48 15 115 36 148 46
219 65 322 101 416 143 36 16 91 37 121 46 39 11 92 42 171 100 117 85 149
104 292 172 147 70 327 196 421 295 63 66 141 189 168 266 52 145 106 406 106
515 0 113 -49 338 -95 433 -58 120 -132 204 -267 302 -60 44 -192 123 -205
123 -5 0 -24 8 -43 19 -76 40 -181 66 -380 97 -58 8 -119 22 -137 30 -17 8
-34 14 -38 14 -11 0 -135 50 -200 80 -119 56 -182 79 -320 118 -189 52 -379
97 -500 117 -121 20 -253 43 -318 55 -43 9 -416 44 -742 70 -229 18 -365 19
-590 5z m3009 -809 c49 -9 94 -20 100 -25 6 -5 27 -14 46 -19 60 -18 142 -56
206 -94 125 -77 284 -278 284 -360 0 -15 5 -30 11 -34 6 -3 8 -17 5 -29 -3
-13 -2 -27 4 -30 12 -7 14 -228 3 -239 -5 -4 -9 -17 -10 -29 -9 -100 -25 -140
-90 -230 -77 -107 -151 -180 -247 -244 -72 -47 -162 -93 -184 -93 -8 0 -26 -7
-40 -15 -42 -23 -151 -45 -160 -31 -8 13 -15 76 -37 341 -9 105 -20 199 -25
210 -4 11 -13 101 -20 200 -6 99 -15 191 -20 205 -11 33 -34 504 -26 525 7 20
54 17 200 -9z m-5335 -36 c4 -29 -13 -203 -37 -365 -23 -165 -23 -167 -29
-635 -6 -472 -4 -459 -61 -460 -91 -1 -335 108 -492 220 -89 63 -127 98 -175
161 -45 61 -76 140 -77 201 0 18 -5 38 -10 45 -11 14 -4 285 9 369 21 128 98
234 200 275 32 13 92 42 133 66 41 23 100 52 130 64 30 11 64 25 75 29 26 12
165 41 235 50 82 11 94 9 99 -20z m1209 -342 c6 -6 12 -21 12 -35 0 -13 6 -39
14 -57 8 -20 10 -39 5 -47 -6 -10 -9 -9 -15 6 -4 11 -27 46 -51 78 -24 31 -43
62 -43 68 0 12 58 2 78 -13z m168 -28 c61 -10 88 -25 67 -38 -21 -13 -85 -67
-109 -91 -22 -24 -23 -24 -30 -5 -3 10 -10 30 -14 44 -26 77 -23 115 10 105
10 -3 44 -10 76 -15z m279 -50 c165 -20 180 -24 183 -42 2 -10 -8 -42 -22 -72
-14 -30 -26 -57 -26 -61 0 -3 -11 -23 -25 -45 -14 -22 -25 -46 -25 -54 0 -8
-6 -19 -14 -23 -7 -4 -21 -21 -29 -38 -27 -49 -64 -88 -79 -83 -15 6 -32 59
-53 173 -9 44 -20 98 -25 120 -5 22 -11 64 -14 93 -5 52 -4 54 17 49 12 -3 63
-11 112 -17z m2585 7 c0 -14 -24 -51 -53 -82 -11 -11 -26 -31 -35 -45 -9 -14
-27 -36 -39 -50 -12 -14 -34 -38 -48 -55 -15 -19 -25 -24 -25 -15 0 20 26 92
50 143 11 23 20 48 20 57 0 19 37 57 46 48 3 -3 17 -2 32 2 40 12 52 11 52 -3z
m-180 -32 c0 -8 -6 -29 -14 -47 -47 -109 -66 -162 -66 -183 0 -46 -27 -41 -92
16 -30 27 -138 168 -138 181 0 8 15 12 37 9 17 -2 185 27 191 34 3 3 23 5 44
5 27 0 38 -4 38 -15z m-2579 -51 c4 -16 7 -50 8 -76 0 -26 5 -49 10 -52 4 -3
11 -26 15 -52 3 -26 10 -52 15 -58 12 -16 23 -99 13 -94 -5 1 -39 37 -76 78
-37 41 -83 91 -102 111 -38 41 -43 63 -16 78 9 5 37 30 62 55 25 25 50 44 55
42 6 -1 13 -16 16 -32z m601 16 c25 -5 87 -10 137 -11 95 -1 104 -6 81 -47 -9
-17 -15 -30 -65 -157 -16 -38 -41 -97 -55 -130 -15 -33 -31 -71 -35 -85 -4
-14 -12 -31 -18 -38 -13 -16 -50 -84 -74 -134 -10 -21 -20 -38 -23 -38 -6 0
-81 309 -80 334 0 11 -4 33 -10 50 -13 43 -41 257 -34 267 5 9 101 3 176 -11z
m1603 -47 c-4 -27 -11 -56 -17 -66 -5 -10 -16 -44 -24 -75 -8 -31 -18 -66 -24
-77 -5 -11 -26 -75 -47 -142 -21 -68 -41 -123 -44 -123 -3 0 -18 37 -33 83
-14 45 -37 109 -50 142 -13 33 -32 89 -41 125 -10 36 -23 81 -30 101 -8 19
-10 40 -7 46 6 9 92 18 301 31 22 2 23 0 16 -45z m-1065 15 c113 -6 207 -12
209 -14 3 -2 -7 -41 -21 -87 -44 -136 -68 -222 -68 -236 0 -7 -6 -27 -14 -44
-8 -18 -22 -52 -30 -77 -14 -42 -50 -140 -93 -258 -24 -63 -33 -74 -33 -39 0
14 -4 29 -10 32 -5 3 -10 19 -10 34 0 15 -7 36 -15 47 -8 10 -15 30 -15 43 0
14 -12 63 -26 110 -14 47 -30 102 -34 121 -5 19 -15 60 -24 90 -8 30 -20 87
-26 125 -7 39 -19 87 -27 107 -18 43 -11 73 14 64 10 -4 110 -12 223 -18z
m683 -23 c-1 -19 -9 -48 -48 -193 -9 -31 -20 -75 -25 -97 -13 -63 -51 -198
-62 -221 -5 -11 -18 -51 -27 -89 -10 -38 -22 -70 -28 -72 -12 -4 -117 254
-142 352 -4 17 -17 62 -28 100 -36 124 -55 217 -47 225 10 10 128 16 294 16
109 -1 115 -2 113 -21z m-1424 -132 c20 -147 33 -217 44 -243 5 -14 14 -45 18
-70 12 -70 29 -134 40 -144 14 -15 11 -46 -6 -46 -8 0 -15 5 -15 10 0 6 -11
15 -25 20 -14 5 -54 31 -89 57 -35 27 -76 57 -91 68 -22 16 -96 75 -113 90 -2
1 26 42 61 89 36 48 85 126 108 175 24 49 47 87 50 85 3 -2 11 -43 18 -91z
m1874 77 c31 -44 122 -136 156 -157 l36 -23 -75 -71 c-41 -40 -104 -94 -140
-121 -36 -26 -78 -59 -95 -73 -30 -26 -55 -32 -55 -15 0 5 10 40 21 77 53 165
59 187 59 197 0 6 7 23 14 38 8 15 22 59 32 98 9 38 20 70 25 70 4 0 14 -9 22
-20z m-1405 -40 c6 -22 12 -53 12 -70 0 -16 4 -30 9 -30 5 0 12 -19 16 -42 4
-24 16 -77 27 -118 11 -41 28 -106 38 -145 33 -127 61 -220 74 -250 30 -65 30
-75 1 -75 -101 0 -475 128 -475 163 0 7 7 22 15 34 23 33 113 205 150 288 34
76 105 260 105 272 0 27 16 11 28 -27z m541 -112 c28 -132 98 -331 180 -512
26 -55 22 -62 -39 -71 -19 -3 -60 -13 -92 -21 -72 -19 -323 -30 -333 -14 -4 6
9 44 29 85 20 41 36 81 36 88 0 7 4 17 9 23 4 5 16 34 26 64 10 30 22 66 27
80 11 29 19 52 103 322 17 55 19 57 31 34 6 -14 17 -48 23 -78z m461 81 c0
-11 6 -33 14 -47 8 -15 20 -47 27 -72 19 -66 99 -273 110 -284 18 -19 10 -56
-15 -66 -13 -5 -27 -13 -30 -18 -6 -10 -148 -82 -161 -82 -4 0 -36 -14 -71
-31 -36 -18 -67 -29 -71 -25 -4 3 3 34 14 69 45 131 92 294 98 337 4 25 11 50
15 55 4 6 15 44 25 85 10 41 19 81 21 88 5 20 24 14 24 -9z"/>
<path d="M10850 7053 c-422 -20 -864 -77 -1250 -161 -188 -42 -385 -114 -615
-227 -183 -89 -215 -100 -352 -120 -59 -9 -139 -21 -178 -27 -83 -12 -240 -53
-310 -80 -232 -92 -413 -234 -479 -379 -96 -210 -123 -569 -61 -799 74 -278
138 -404 270 -535 142 -142 317 -228 650 -321 50 -14 104 -32 120 -39 17 -7
53 -21 80 -31 28 -10 111 -48 185 -85 347 -171 589 -259 865 -316 66 -13 129
-26 140 -29 11 -2 63 -11 115 -19 52 -8 127 -22 165 -30 128 -27 466 -55 793
-66 346 -11 744 -1 982 26 69 7 190 21 269 29 79 9 160 20 180 25 20 5 61 12
91 16 50 6 252 52 325 74 317 96 510 159 641 212 67 27 142 55 166 63 44 13
59 22 208 133 41 30 131 82 200 116 193 93 368 212 466 317 141 151 216 342
260 664 18 133 11 232 -28 401 -61 260 -208 427 -511 577 -130 64 -218 92
-354 113 -181 26 -267 50 -398 110 -153 70 -242 106 -332 134 -113 35 -412
108 -493 121 -30 5 -134 23 -230 40 -354 63 -837 101 -1255 98 -143 -1 -289
-3 -325 -5z m3090 -804 c25 -6 52 -12 60 -14 55 -13 160 -54 249 -97 80 -39
119 -65 167 -113 136 -136 174 -205 199 -363 26 -167 4 -361 -50 -444 -135
-207 -277 -328 -477 -406 -118 -46 -191 -62 -203 -43 -4 7 -13 92 -21 189 -8
97 -21 233 -29 302 -27 225 -75 816 -75 933 l0 67 68 0 c37 0 87 -5 112 -11z
m-5342 -18 c11 -7 12 -35 3 -158 -7 -82 -16 -165 -21 -184 -21 -72 -44 -461
-46 -784 -1 -181 -2 -336 -3 -342 -1 -18 -103 -17 -161 1 -174 53 -450 227
-539 341 -81 102 -92 137 -104 320 -12 187 0 344 34 421 30 67 122 157 184
180 28 10 81 36 119 57 144 82 256 120 411 141 55 7 102 14 105 14 3 1 11 -2
18 -7z m1159 -598 c6 -16 -45 -75 -59 -67 -9 6 -11 77 -3 86 10 10 57 -5 62
-19z m171 -47 c6 -7 -69 -111 -76 -106 -8 6 -3 100 5 114 5 7 61 1 71 -8z
m3049 2 c5 -7 10 -30 10 -51 l1 -37 -17 22 c-10 13 -21 31 -24 41 -12 32 11
50 30 25z m93 -40 c0 -15 -28 -8 -34 8 -10 26 5 39 21 19 7 -11 13 -22 13 -27z
m-2960 -10 c0 -4 -16 -32 -35 -63 -19 -30 -40 -66 -45 -80 -5 -14 -15 -25 -21
-25 -13 0 -4 91 12 121 5 10 9 28 9 42 0 13 2 26 5 29 7 7 75 -15 75 -24z
m2716 -80 c-6 -102 -10 -129 -19 -117 -17 24 -104 215 -101 221 3 4 33 8 66 8
l61 0 -7 -112z m-2612 73 c3 -4 38 -11 78 -15 40 -4 76 -10 80 -14 6 -6 -27
-91 -52 -132 -20 -33 -90 -180 -90 -190 0 -5 -4 -10 -9 -10 -4 0 -11 44 -15
98 -17 245 -18 272 -8 272 6 0 13 -4 16 -9z m2399 -73 c-2 -46 -11 -109 -19
-141 -8 -32 -14 -74 -14 -93 0 -42 -13 -37 -38 14 -10 20 -49 91 -86 156 -36
66 -63 123 -59 127 12 11 50 16 140 18 l81 1 -5 -82z m-2839 45 c-4 -16 -10
-48 -14 -73 l-7 -45 -21 45 -22 45 30 28 c17 15 33 27 36 27 4 0 3 -12 -2 -27z
m2516 -8 c0 -8 -4 -24 -9 -37 -5 -13 -17 -70 -26 -128 -10 -58 -21 -118 -25
-135 -5 -16 -11 -51 -15 -77 -4 -32 -11 -48 -21 -48 -8 0 -14 5 -14 12 0 11
-29 74 -111 242 -16 32 -32 64 -37 70 -4 6 -14 28 -21 50 -17 49 -12 53 92 55
45 1 83 4 86 7 2 2 26 4 53 4 35 0 48 -4 48 -15z m-1705 -19 c28 -7 50 -17 50
-22 -1 -5 -11 -31 -24 -59 -13 -27 -29 -63 -37 -80 -7 -16 -27 -61 -45 -100
l-32 -70 -12 65 c-10 53 -21 240 -16 273 2 11 60 8 116 -7z m288 -17 c48 -1
92 -6 99 -10 14 -9 -2 -65 -62 -214 -5 -11 -11 -31 -14 -45 -11 -50 -51 -160
-58 -160 -5 0 -8 18 -8 40 0 38 -5 64 -35 190 -35 143 -41 221 -16 205 5 -2
47 -5 94 -6z m1039 6 c3 -3 -3 -58 -13 -123 -10 -64 -18 -134 -19 -155 0 -43
-19 -127 -29 -127 -6 0 -19 32 -56 135 -31 89 -65 180 -74 200 -16 35 -19 64
-7 69 15 6 191 7 198 1z m-329 -25 c-18 -113 -23 -142 -32 -180 -26 -104 -31
-132 -31 -170 0 -21 -4 -41 -9 -44 -10 -6 -31 76 -31 118 0 13 -7 43 -15 66
-8 23 -15 58 -15 76 0 19 -5 53 -12 77 -18 68 -11 75 74 73 59 -1 73 -4 71
-16z m1365 -34 c17 -30 32 -58 32 -63 0 -13 -60 -83 -71 -83 -5 0 -9 45 -9
100 0 55 3 100 8 100 4 0 22 -25 40 -54z m-3013 -69 c-3 -56 -10 -107 -13
-114 -9 -15 -102 61 -102 83 0 20 102 143 113 136 5 -2 6 -50 2 -105z m1369
107 c23 -9 20 -34 -14 -102 -16 -34 -30 -65 -30 -70 0 -4 -11 -32 -25 -60 -14
-29 -25 -56 -25 -62 0 -6 -9 -27 -20 -47 -11 -21 -23 -52 -26 -70 -8 -41 -22
-51 -28 -21 -10 52 -39 298 -43 366 l-5 72 100 0 c55 0 107 -3 116 -6z m1092
-77 c4 -11 23 -48 43 -81 20 -34 54 -93 74 -133 l38 -72 -58 -27 c-55 -25
-142 -54 -207 -68 -28 -7 -29 -6 -22 26 4 18 11 53 16 78 9 45 36 152 67 262
13 46 19 56 29 47 7 -6 16 -20 20 -32z m342 -57 c28 -54 52 -106 52 -113 0
-15 -110 -77 -137 -77 -12 0 -14 9 -10 43 3 23 12 88 18 145 7 56 16 102 19
102 3 0 29 -45 58 -100z m-2613 31 c-2 -21 1 -87 6 -146 5 -60 7 -110 5 -112
-11 -12 -156 71 -156 89 0 5 26 48 58 96 32 48 61 95 65 105 11 30 26 9 22
-32z m1555 -29 c0 -14 38 -118 85 -227 7 -16 18 -41 23 -55 6 -14 18 -42 28
-63 10 -22 13 -42 8 -47 -14 -13 -254 -34 -265 -23 -9 9 8 79 71 303 10 36 22
82 25 103 6 36 25 43 25 9z m-971 -64 c7 -40 17 -86 22 -103 17 -57 41 -237
32 -246 -7 -7 -101 9 -223 38 -49 12 -48 33 4 128 24 44 66 121 92 172 26 50
51 90 54 88 4 -2 12 -37 19 -77z m1356 -94 c51 -105 83 -180 78 -185 -5 -5
-36 -14 -69 -20 -32 -6 -73 -15 -90 -20 -48 -14 -64 -11 -64 12 0 11 4 28 9
37 5 9 12 45 15 80 4 34 11 86 16 114 6 28 10 75 10 104 0 30 2 54 4 54 2 0
43 -79 91 -176z m-1665 84 c1 -40 3 -117 6 -170 3 -54 3 -98 0 -98 -4 0 -14 4
-24 9 -9 4 -42 16 -72 26 -78 25 -82 29 -62 73 9 20 38 72 65 115 26 43 47 82
47 86 0 9 22 31 32 31 4 0 8 -33 8 -72z m633 -15 c3 -38 10 -99 15 -138 6 -38
13 -103 16 -142 l5 -73 -44 0 c-38 0 -86 8 -153 26 -9 3 -10 9 -3 21 5 10 22
50 36 88 15 39 40 101 56 139 16 38 29 74 29 80 0 16 24 66 31 66 4 0 9 -30
12 -67z m341 50 c3 -10 8 -45 11 -78 4 -33 13 -87 21 -120 8 -33 14 -88 14
-123 0 -57 -2 -63 -24 -72 -25 -9 -213 -16 -221 -8 -3 3 11 37 30 77 19 39 35
75 35 79 0 4 11 27 24 52 13 25 27 56 31 70 4 14 13 32 19 40 7 8 18 34 26 58
14 45 25 53 34 25z"/>
<path d="M3640 3433 c-140 -4 -549 -23 -590 -29 -19 -2 -118 -13 -220 -23
-179 -19 -430 -57 -575 -86 -214 -45 -271 -59 -380 -96 -153 -52 -199 -72
-401 -170 -173 -83 -265 -112 -399 -124 -391 -36 -748 -210 -889 -434 -32 -50
-61 -137 -88 -259 -16 -78 -21 -135 -22 -287 -1 -202 0 -211 66 -430 59 -195
166 -357 308 -467 141 -109 286 -173 568 -253 110 -30 216 -71 332 -127 309
-149 495 -227 658 -278 109 -33 376 -92 527 -116 55 -8 125 -22 156 -30 30 -7
107 -18 170 -24 63 -5 150 -14 194 -20 135 -16 698 -32 915 -26 215 7 431 21
559 37 42 5 135 16 206 24 267 29 473 73 755 161 278 87 426 137 495 169 39
18 101 42 138 54 46 16 104 50 193 113 70 50 166 109 212 130 277 128 493 298
592 467 58 100 75 144 109 285 51 206 65 333 51 451 -36 317 -120 481 -320
631 -191 144 -363 216 -605 253 -142 22 -305 71 -400 119 -149 75 -301 126
-575 191 -204 49 -252 58 -533 106 -282 48 -922 95 -1207 88z m-805 -794 c1
-97 22 -146 99 -239 45 -54 113 -181 134 -250 6 -19 18 -78 27 -130 32 -196
37 -216 62 -259 33 -57 106 -127 163 -156 105 -53 356 -80 530 -56 214 28 380
136 431 280 36 103 199 294 314 368 102 66 123 84 179 151 39 49 64 92 83 143
14 41 27 76 29 78 2 2 11 -2 19 -9 11 -9 14 -22 10 -40 -4 -18 -1 -31 9 -40
19 -15 12 -30 -14 -30 -25 0 -35 -17 -20 -35 19 -23 7 -47 -30 -59 -28 -9 -34
-16 -32 -34 8 -72 10 -67 -37 -70 -45 -3 -46 -6 -25 -56 7 -17 4 -19 -33 -14
-55 8 -70 -3 -55 -36 13 -29 15 -29 -64 -26 -29 1 -55 -4 -59 -9 -3 -6 8 -29
25 -51 17 -22 29 -44 25 -49 -3 -6 -30 -8 -59 -5 -68 6 -78 -7 -37 -50 50 -51
39 -66 -50 -66 -62 0 -68 -13 -35 -78 15 -29 22 -53 16 -57 -5 -3 -39 -3 -76
1 l-67 7 7 -44 c3 -24 9 -62 12 -83 7 -43 7 -43 -63 -15 -44 18 -53 6 -60 -70
-3 -33 -10 -61 -14 -61 -5 0 -31 14 -57 30 -58 36 -92 39 -92 10 0 -29 -23
-100 -33 -100 -4 0 -38 20 -75 45 -37 25 -71 45 -77 45 -6 0 -28 -27 -50 -60
-22 -33 -46 -60 -53 -60 -15 0 -52 58 -52 83 0 31 -31 18 -77 -33 -25 -27 -50
-50 -57 -50 -19 0 -44 32 -59 76 -19 53 -49 56 -120 11 -30 -19 -59 -32 -65
-28 -5 3 -13 27 -17 53 -4 26 -12 52 -19 57 -7 6 -35 2 -81 -13 -39 -13 -74
-20 -78 -16 -5 4 -3 36 3 70 14 76 6 90 -42 72 -18 -6 -36 -8 -40 -4 -4 4 6
34 23 66 17 32 28 63 26 70 -3 7 -37 18 -76 25 -39 7 -71 16 -71 21 0 4 23 27
50 50 28 24 49 47 48 52 -2 6 -28 20 -58 32 -29 12 -55 27 -58 34 -2 6 17 24
42 39 50 30 60 53 23 53 -26 0 -67 26 -67 43 0 6 12 23 26 38 32 33 25 49 -22
49 -37 0 -43 13 -18 41 19 21 9 43 -16 36 -10 -2 -24 -1 -31 4 -11 6 -10 12 5
28 17 18 15 41 -3 41 -5 0 -24 7 -44 15 -34 14 -35 16 -24 45 10 26 8 32 -16
58 -32 34 -34 48 -7 64 24 16 25 27 3 43 -15 11 -15 15 -4 29 7 9 11 22 8 31
-6 15 30 48 47 42 5 -2 10 -41 11 -88z m3656 -34 c206 -54 342 -126 451 -239
107 -111 146 -181 169 -310 24 -130 24 -197 -1 -324 -21 -107 -30 -126 -140
-279 -39 -53 -125 -127 -222 -190 -86 -57 -263 -126 -323 -127 -40 -1 -40 -1
-47 44 -4 25 -15 126 -23 225 -15 176 -33 368 -55 570 -5 55 -12 132 -15 170
-3 39 -7 95 -10 127 -2 31 -7 124 -11 207 l-7 151 70 0 c43 0 107 -10 164 -25z
m-5381 -22 c0 -69 -22 -308 -30 -329 -22 -56 -44 -451 -45 -789 l-1 -340 -79
1 c-61 0 -92 6 -130 23 -27 13 -79 37 -115 53 -64 30 -229 133 -302 190 -47
37 -120 132 -149 195 -31 66 -48 322 -31 469 13 121 31 171 86 241 38 48 57
60 231 147 105 52 210 99 235 106 25 6 56 15 71 21 31 12 135 26 207 28 43 1
52 -2 52 -16z m1514 8 c4 -5 -20 -27 -52 -48 -61 -41 -67 -58 -26 -73 13 -5
24 -13 24 -17 -1 -5 -25 -24 -55 -43 -56 -36 -74 -58 -52 -64 51 -16 51 -13 1
-77 -45 -59 -46 -63 -29 -75 11 -8 26 -12 34 -9 9 2 22 1 30 -4 12 -8 10 -16
-14 -48 -15 -21 -41 -52 -56 -68 -33 -35 -27 -65 9 -46 37 20 52 14 52 -21 0
-44 -38 -147 -66 -181 -13 -16 -22 -33 -18 -38 3 -5 39 -9 81 -9 68 0 74 -2
68 -17 -4 -10 -10 -29 -13 -43 -5 -25 -57 -127 -73 -145 -5 -5 -9 -17 -9 -27
0 -22 29 -23 96 -3 27 8 59 15 71 15 20 0 21 -3 12 -32 -5 -18 -22 -60 -39
-93 -16 -33 -30 -66 -30 -73 0 -18 48 -15 107 7 28 10 55 16 61 12 7 -4 7 -23
2 -51 -4 -25 -11 -78 -14 -117 -7 -70 -6 -73 14 -73 11 0 41 21 66 46 43 42
47 44 60 27 7 -10 14 -25 14 -33 0 -9 4 -20 8 -25 5 -6 19 -43 32 -82 28 -90
44 -94 90 -23 18 28 34 50 37 50 8 0 88 -65 116 -95 52 -55 64 -70 82 -105 17
-33 32 -49 46 -50 3 0 27 21 52 47 45 45 47 46 74 32 15 -8 52 -38 84 -66 31
-29 61 -53 66 -53 4 0 31 15 58 33 125 81 155 91 155 48 0 -23 52 -81 73 -81
9 0 42 26 74 58 99 100 211 177 229 159 4 -3 9 -26 11 -51 6 -48 43 -101 66
-93 6 2 16 17 21 33 5 16 15 43 21 59 7 17 16 41 20 55 4 14 16 43 27 64 l20
39 36 -40 c47 -51 88 -77 108 -69 13 5 15 21 8 121 -4 63 -5 115 -2 115 2 0
40 -15 84 -34 116 -50 124 -51 124 -27 0 12 -4 29 -9 39 -16 31 -54 153 -49
158 3 2 21 -2 41 -11 42 -17 139 -30 162 -22 11 5 13 11 6 24 -5 10 -15 38
-21 63 -7 25 -21 69 -32 98 -12 29 -18 55 -15 58 6 6 76 -15 91 -28 6 -4 23
-8 39 -8 l30 0 -7 83 c-3 45 -9 101 -12 123 -7 51 5 61 48 40 53 -27 80 -15
60 27 -31 69 -61 151 -57 157 3 5 21 3 40 -3 50 -15 61 -1 39 49 -9 21 -22 50
-27 64 -6 14 -13 29 -16 34 -2 5 16 6 42 3 39 -6 47 -4 47 9 0 17 -28 71 -47
92 -20 21 -16 29 17 34 52 8 55 0 53 -134 -2 -174 -31 -340 -73 -419 -5 -9
-14 -36 -20 -60 -13 -47 -15 -53 -80 -202 -47 -107 -140 -248 -217 -330 -263
-281 -666 -414 -1151 -378 -240 18 -454 62 -566 118 -243 120 -457 339 -573
583 -36 76 -52 120 -98 280 -21 68 -37 216 -30 274 3 28 7 76 9 106 6 73 13
103 44 180 42 103 96 189 158 252 54 54 85 70 98 49z m2457 -227 c11 -26 18
-49 15 -51 -6 -6 -56 69 -56 84 0 28 22 10 41 -33z"/>
<path d="M11099 3395 c-3 -2 -95 -9 -204 -15 -187 -10 -489 -33 -580 -45 -22
-2 -98 -12 -170 -21 -148 -18 -385 -60 -558 -99 -199 -44 -358 -102 -577 -208
-197 -96 -308 -133 -425 -142 -195 -15 -398 -71 -574 -158 -137 -67 -293 -203
-342 -298 -91 -180 -131 -564 -79 -779 78 -328 178 -497 385 -653 68 -51 117
-78 250 -138 30 -14 202 -68 270 -85 92 -23 235 -80 402 -160 488 -233 633
-278 1233 -383 240 -42 409 -59 725 -72 292 -13 785 -7 980 10 175 16 178 17
325 35 372 47 511 77 830 176 69 21 172 53 230 71 58 17 148 50 200 71 52 22
127 51 165 64 75 27 164 80 257 154 60 47 92 66 223 126 139 64 324 191 413
284 80 82 156 208 189 312 55 170 98 414 90 509 -32 357 -115 527 -342 694
-41 30 -77 55 -80 55 -4 0 -20 9 -35 20 -103 73 -312 149 -455 164 -86 10
-177 26 -200 36 -11 5 -65 26 -120 46 -55 20 -104 40 -110 44 -66 50 -507 183
-745 225 -41 8 -120 23 -175 34 -216 43 -564 83 -885 101 -102 6 -201 15 -220
20 -35 10 -283 14 -291 5z m-243 -575 c0 -58 6 -127 12 -153 17 -69 84 -169
132 -196 22 -12 40 -26 40 -30 0 -5 9 -11 20 -14 23 -6 25 -28 10 -157 -5 -47
-12 -124 -15 -172 -7 -86 -8 -88 -56 -150 -111 -142 -189 -237 -220 -267 -8
-9 -37 -44 -64 -79 -43 -55 -49 -69 -49 -113 -1 -44 3 -54 27 -75 40 -34 68
-30 129 20 51 42 218 209 218 218 0 2 29 35 64 73 l65 70 23 -30 c30 -38 68
-95 68 -101 0 -6 27 -45 85 -124 93 -128 156 -176 207 -158 30 10 58 61 58
105 0 54 -104 221 -264 422 l-59 75 2 210 c1 130 6 215 13 223 6 7 19 13 30
13 27 0 106 45 146 83 68 64 101 171 102 326 l0 63 33 -5 c120 -21 162 -36
332 -116 193 -92 241 -119 376 -208 54 -36 222 -201 267 -263 45 -62 110 -177
130 -230 21 -55 43 -148 56 -236 24 -155 -18 -376 -111 -584 -36 -80 -143
-231 -216 -304 -72 -72 -265 -209 -374 -265 -208 -108 -484 -159 -908 -168
-213 -5 -254 -3 -365 16 -357 59 -679 223 -924 467 -106 107 -217 284 -261
418 -47 144 -49 159 -49 326 0 152 2 172 28 255 67 222 173 365 401 549 268
215 635 381 825 372 l35 -1 1 -105z m3069 -242 c11 -3 40 -11 65 -17 25 -7 52
-15 60 -18 8 -4 17 -7 20 -8 54 -14 171 -70 235 -111 53 -34 155 -128 155
-142 0 -5 12 -19 26 -33 31 -29 89 -145 86 -173 0 -11 4 -27 11 -35 17 -20 17
-335 0 -352 -7 -7 -13 -27 -13 -44 0 -17 -8 -47 -18 -66 -30 -59 -114 -171
-170 -226 -87 -87 -245 -187 -327 -207 -16 -4 -49 -16 -73 -27 -27 -13 -59
-19 -85 -17 l-42 3 -8 75 c-4 41 -7 104 -7 139 1 35 -3 68 -8 75 -5 6 -15 90
-22 186 -7 96 -16 180 -20 185 -4 6 -13 102 -19 215 -7 113 -16 219 -21 235
-5 17 -12 108 -16 203 l-7 173 89 -4 c49 -2 98 -6 109 -9z m-5330 -150 c-4
-73 -13 -160 -21 -193 -8 -33 -16 -112 -20 -175 -3 -63 -10 -124 -15 -135 -5
-11 -10 -202 -12 -425 l-2 -405 -55 -3 c-71 -4 -122 9 -229 60 -201 95 -349
198 -423 294 -91 120 -102 177 -96 469 4 187 6 203 30 255 32 70 110 153 168
178 48 21 67 29 225 109 55 28 116 54 135 57 19 4 46 12 60 17 34 13 133 26
204 28 l58 1 -7 -132z"/>
</g>
</svg>
